<?xml version="1.0" encoding="UTF-8"?>
<svg xmlns="http://www.w3.org/2000/svg" xmlns:xlink="http://www.w3.org/1999/xlink" width="512px" height="512px" viewBox="0 0 512 512" version="1.1">
<g id="surface1">
<path style="fill:none;stroke-width:8;stroke-linecap:butt;stroke-linejoin:miter;stroke:rgb(100%,80%,60%);stroke-opacity:1;stroke-miterlimit:4;" d="M 113.999512 80.000488 C 113.999512 63.431885 100.568115 50.000488 83.999512 50.000488 C 67.430908 50.000488 53.999512 63.431885 53.999512 80.000488 C 53.999512 96.569092 67.430908 110.000488 83.999512 110.000488 C 100.568115 110.000488 113.999512 96.569092 113.999512 80.000488 Z M 113.999512 80.000488 " transform="matrix(3.2,0,0,3.2,1.6,1.6)"/>
<path style="fill:none;stroke-width:8;stroke-linecap:butt;stroke-linejoin:miter;stroke:rgb(100%,85.098039%,40%);stroke-opacity:1;stroke-miterlimit:10;" d="M 67.999756 30.000488 L 76.000244 30.000488 C 81.333496 30.000488 85.666992 28.333008 88.999512 25.000488 L 93.999512 20.000488 " transform="matrix(3.2,0,0,3.2,1.6,1.6)"/>
<path style="fill:none;stroke-width:8;stroke-linecap:butt;stroke-linejoin:miter;stroke:rgb(100%,85.098039%,40%);stroke-opacity:1;stroke-miterlimit:10;" d="M 120.000488 100.000488 L 127.999756 100.000488 C 133.333008 100.000488 137.666504 98.333008 141.000244 95.000488 L 146.000244 90.000488 " transform="matrix(3.2,0,0,3.2,1.6,1.6)"/>
<path style="fill:none;stroke-width:8;stroke-linecap:butt;stroke-linejoin:miter;stroke:rgb(100%,85.098039%,40%);stroke-opacity:1;stroke-miterlimit:10;" d="M 46.000244 100.000488 L 41.000244 105.000488 C 37.666504 108.333008 33.333008 110.000488 27.999756 110.000488 L 20.000488 110.000488 " transform="matrix(3.2,0,0,3.2,1.6,1.6)"/>
<path style="fill:none;stroke-width:8;stroke-linecap:butt;stroke-linejoin:miter;stroke:rgb(100%,85.098039%,40%);stroke-opacity:1;stroke-miterlimit:10;" d="M 20.000488 70.000488 L 25.000488 65.000488 C 28.333008 61.666748 32.666504 60.000488 37.999756 60.000488 L 46.000244 60.000488 " transform="matrix(3.2,0,0,3.2,1.6,1.6)"/>
<path style="fill:none;stroke-width:8;stroke-linecap:butt;stroke-linejoin:miter;stroke:rgb(100%,85.098039%,40%);stroke-opacity:1;stroke-miterlimit:10;" d="M 120.000488 60.000488 L 127.999756 60.000488 C 133.333008 60.000488 137.666504 58.333008 141.000244 55.000488 L 146.000244 50.000488 " transform="matrix(3.2,0,0,3.2,1.6,1.6)"/>
<path style="fill:none;stroke-width:8;stroke-linecap:butt;stroke-linejoin:miter;stroke:rgb(100%,85.098039%,40%);stroke-opacity:1;stroke-miterlimit:10;" d="M 67.999756 140.000488 L 76.000244 140.000488 C 81.333496 140.000488 85.666992 138.333008 88.999512 135.000488 L 93.999512 130.000488 " transform="matrix(3.2,0,0,3.2,1.6,1.6)"/>
</g>
</svg>
