<?xml version="1.0" encoding="UTF-8"?>
<svg xmlns="http://www.w3.org/2000/svg" xmlns:xlink="http://www.w3.org/1999/xlink" width="13px" height="13px" viewBox="0 0 13 13" version="1.1">
<g id="surface1">
<path style="fill:none;stroke-width:8;stroke-linecap:butt;stroke-linejoin:miter;stroke:rgb(100%,80%,60%);stroke-opacity:1;stroke-miterlimit:4;" d="M 114.019231 79.980769 C 114.019231 63.442308 100.557692 49.980769 84.019231 49.980769 C 67.432692 49.980769 54.019231 63.442308 54.019231 79.980769 C 54.019231 96.567308 67.432692 109.980769 84.019231 109.980769 C 100.557692 109.980769 114.019231 96.567308 114.019231 79.980769 Z M 114.019231 79.980769 " transform="matrix(0.08125,0,0,0.08125,0.040625,0.040625)"/>
<path style="fill:none;stroke-width:8;stroke-linecap:butt;stroke-linejoin:miter;stroke:rgb(100%,85.098039%,40%);stroke-opacity:1;stroke-miterlimit:10;" d="M 68.009615 29.980769 L 75.990385 29.980769 C 81.326923 29.980769 85.653846 28.346154 89.019231 24.980769 L 94.019231 19.980769 " transform="matrix(0.08125,0,0,0.08125,0.040625,0.040625)"/>
<path style="fill:none;stroke-width:8;stroke-linecap:butt;stroke-linejoin:miter;stroke:rgb(100%,85.098039%,40%);stroke-opacity:1;stroke-miterlimit:10;" d="M 119.980769 99.980769 L 128.009615 99.980769 C 133.346154 99.980769 137.673077 98.346154 140.990385 94.980769 L 145.990385 89.980769 " transform="matrix(0.08125,0,0,0.08125,0.040625,0.040625)"/>
<path style="fill:none;stroke-width:8;stroke-linecap:butt;stroke-linejoin:miter;stroke:rgb(100%,85.098039%,40%);stroke-opacity:1;stroke-miterlimit:10;" d="M 45.990385 99.980769 L 40.990385 104.980769 C 37.673077 108.346154 33.346154 109.980769 28.009615 109.980769 L 19.980769 109.980769 " transform="matrix(0.08125,0,0,0.08125,0.040625,0.040625)"/>
<path style="fill:none;stroke-width:8;stroke-linecap:butt;stroke-linejoin:miter;stroke:rgb(100%,85.098039%,40%);stroke-opacity:1;stroke-miterlimit:10;" d="M 19.980769 69.980769 L 24.980769 64.980769 C 28.346154 61.663462 32.673077 59.980769 38.009615 59.980769 L 45.990385 59.980769 " transform="matrix(0.08125,0,0,0.08125,0.040625,0.040625)"/>
<path style="fill:none;stroke-width:8;stroke-linecap:butt;stroke-linejoin:miter;stroke:rgb(100%,85.098039%,40%);stroke-opacity:1;stroke-miterlimit:10;" d="M 119.980769 59.980769 L 128.009615 59.980769 C 133.346154 59.980769 137.673077 58.346154 140.990385 54.980769 L 145.990385 49.980769 " transform="matrix(0.08125,0,0,0.08125,0.040625,0.040625)"/>
<path style="fill:none;stroke-width:8;stroke-linecap:butt;stroke-linejoin:miter;stroke:rgb(100%,85.098039%,40%);stroke-opacity:1;stroke-miterlimit:10;" d="M 68.009615 139.980769 L 75.990385 139.980769 C 81.326923 139.980769 85.653846 138.346154 89.019231 134.980769 L 94.019231 129.980769 " transform="matrix(0.08125,0,0,0.08125,0.040625,0.040625)"/>
</g>
</svg>
